ply
format ascii 1.0
comment Created by Blender 2.82 (sub 7) - www.blender.org, source file: 'CollisionObject.blend'
element vertex 172
property float x
property float y
property float z
property float nx
property float ny
property float nz
property uchar red
property uchar green
property uchar blue
property uchar alpha
element face 108
property list uchar uint vertex_indices
end_header
0.020000 -0.005000 0.275000 0.000000 0.000000 -1.000000 255 5 17 255
0.020000 -0.020000 0.275000 0.000000 0.000000 -1.000000 255 0 16 255
-0.025000 -0.005000 0.275000 0.000000 0.000000 -1.000000 255 0 16 255
-0.025000 -0.020000 0.275000 0.000000 0.000000 -1.000000 255 0 16 255
0.020000 -0.005000 0.225000 0.000000 -1.000000 -0.000000 133 71 0 255
0.020000 -0.005000 0.275000 0.000000 -1.000000 -0.000000 255 5 17 255
-0.025000 -0.005000 0.225000 0.000000 -1.000000 -0.000000 133 71 0 255
-0.025000 -0.005000 0.275000 0.000000 -1.000000 -0.000000 255 0 16 255
0.020000 0.020000 0.275000 0.000000 0.000000 -1.000000 255 6 17 255
0.020000 0.005000 0.275000 0.000000 0.000000 -1.000000 255 2 16 255
-0.025000 0.020000 0.275000 0.000000 0.000000 -1.000000 255 18 24 255
-0.025000 0.005000 0.275000 0.000000 0.000000 -1.000000 255 0 16 255
0.020000 0.005000 0.275000 0.000000 1.000000 0.000000 255 2 16 255
0.020000 0.005000 0.225000 0.000000 1.000000 0.000000 133 71 0 255
-0.025000 0.005000 0.275000 0.000000 1.000000 0.000000 255 0 16 255
-0.025000 0.005000 0.225000 -0.000000 1.000000 0.000000 133 71 0 255
-0.025000 -0.020000 0.275000 -0.000000 -1.000000 -0.000000 255 0 16 255
0.020000 -0.020000 0.275000 -0.000000 -1.000000 -0.000000 255 0 16 255
-0.056820 -0.020000 0.306820 -0.000000 -1.000000 -0.000000 255 0 16 255
0.051820 -0.020000 0.306820 -0.000000 -1.000000 0.000000 255 0 16 255
-0.056820 -0.020000 0.351820 -0.000000 -1.000000 -0.000000 255 28 33 255
0.051820 -0.020000 0.351820 -0.000000 -1.000000 -0.000000 255 8 18 255
-0.025000 -0.020000 0.383640 -0.000000 -1.000000 -0.000000 255 7 18 255
0.020000 -0.020000 0.383640 -0.000000 -1.000000 -0.000000 255 40 43 255
0.020000 0.020000 0.275000 -0.000000 1.000000 0.000000 255 6 17 255
-0.025000 0.020000 0.275000 -0.000000 1.000000 0.000000 255 18 24 255
0.051820 0.020000 0.306820 -0.000000 1.000000 0.000000 255 0 16 255
-0.056820 0.020000 0.306820 -0.000000 1.000000 0.000000 255 4 16 255
0.051820 0.020000 0.351820 -0.000000 1.000000 0.000000 255 2 16 255
-0.056820 0.020000 0.351820 -0.000000 1.000000 0.000000 255 0 16 255
0.020000 0.020000 0.383640 -0.000000 1.000000 0.000000 255 0 16 255
-0.025000 0.020000 0.383640 -0.000000 1.000000 0.000000 255 2 16 255
-0.025000 -0.005000 0.275000 -1.000000 0.000000 0.000000 255 0 16 255
-0.025000 0.005000 0.275000 -1.000000 0.000000 0.000000 255 0 16 255
-0.025000 -0.005000 0.225000 -1.000000 0.000000 0.000000 133 71 0 255
-0.025000 0.005000 0.225000 -1.000000 -0.000000 0.000000 133 71 0 255
-0.025000 0.020000 0.275000 -0.707107 0.000000 -0.707107 255 18 24 255
-0.025000 0.005000 0.275000 -0.707107 0.000000 -0.707107 255 0 16 255
-0.056820 0.020000 0.306820 -0.707107 0.000000 -0.707107 255 4 16 255
-0.025000 -0.005000 0.275000 -0.707107 0.000000 -0.707107 255 0 16 255
-0.056820 -0.020000 0.306820 -0.707107 0.000000 -0.707107 255 0 16 255
-0.025000 -0.020000 0.275000 -0.707107 0.000000 -0.707107 255 0 16 255
-0.056820 0.020000 0.351820 -1.000000 0.000000 0.000000 255 0 16 255
-0.056820 0.020000 0.306820 -1.000000 0.000000 0.000000 255 4 16 255
-0.056820 -0.020000 0.351820 -1.000000 0.000000 0.000000 255 28 33 255
-0.056820 -0.020000 0.306820 -1.000000 0.000000 0.000000 255 0 16 255
-0.025000 0.020000 0.383640 -0.707107 0.000000 0.707107 255 2 16 255
-0.056820 0.020000 0.351820 -0.707107 0.000000 0.707107 255 0 16 255
-0.025000 -0.020000 0.383640 -0.707107 0.000000 0.707107 255 7 18 255
-0.056820 -0.020000 0.351820 -0.707107 0.000000 0.707107 255 28 33 255
0.020000 0.020000 0.383640 0.000000 -0.000000 1.000000 255 0 16 255
-0.025000 0.020000 0.383640 0.000000 -0.000000 1.000000 255 2 16 255
0.020000 -0.020000 0.383640 0.000000 -0.000000 1.000000 255 40 43 255
-0.025000 -0.020000 0.383640 -0.000000 0.000000 1.000000 255 7 18 255
0.051820 0.020000 0.351820 0.707107 0.000000 0.707107 255 2 16 255
0.020000 0.020000 0.383640 0.707107 0.000000 0.707107 255 0 16 255
0.051820 -0.020000 0.351820 0.707107 0.000000 0.707107 255 8 18 255
0.020000 -0.020000 0.383640 0.707107 -0.000000 0.707107 255 40 43 255
0.051820 0.020000 0.306820 1.000000 -0.000000 0.000000 255 0 16 255
0.051820 0.020000 0.351820 1.000000 -0.000000 0.000000 255 2 16 255
0.051820 -0.020000 0.306820 1.000000 -0.000000 0.000000 255 0 16 255
0.051820 -0.020000 0.351820 1.000000 -0.000000 0.000000 255 8 18 255
0.020000 0.020000 0.275000 0.707107 0.000000 -0.707107 255 6 17 255
0.051820 0.020000 0.306820 0.707107 0.000000 -0.707107 255 0 16 255
0.020000 0.005000 0.275000 0.707107 0.000000 -0.707107 255 2 16 255
0.020000 -0.005000 0.275000 0.707107 0.000000 -0.707107 255 5 17 255
0.051820 -0.020000 0.306820 0.707107 0.000000 -0.707107 255 0 16 255
0.020000 -0.020000 0.275000 0.707107 0.000000 -0.707107 255 0 16 255
0.020000 -0.005000 0.225000 1.000000 0.000000 0.000000 133 71 0 255
0.020000 0.005000 0.225000 1.000000 0.000000 0.000000 133 71 0 255
0.020000 -0.005000 0.275000 1.000000 0.000000 0.000000 255 5 17 255
0.020000 0.005000 0.275000 1.000000 0.000000 0.000000 255 2 16 255
0.085000 -0.075000 -0.000000 0.000000 1.000000 0.000000 133 71 1 255
0.085000 -0.075000 0.175000 0.000000 1.000000 0.000000 133 71 0 255
0.110000 -0.075000 -0.000000 0.000000 1.000000 0.000000 133 71 2 255
0.110000 -0.075000 0.175000 0.000000 1.000000 0.000000 133 71 0 255
-0.090000 -0.075000 0.175000 0.000000 1.000000 0.000000 133 71 0 255
-0.090000 -0.075000 -0.000000 0.000000 1.000000 0.000000 133 71 0 255
-0.115000 -0.075000 0.175000 0.000000 1.000000 0.000000 133 71 0 255
-0.115000 -0.075000 -0.000000 -0.000000 1.000000 0.000000 133 71 0 255
0.085000 0.075000 0.175000 0.000000 -1.000000 -0.000000 133 71 0 255
0.085000 0.075000 -0.000000 0.000000 -1.000000 -0.000000 133 71 0 255
0.110000 0.075000 0.175000 0.000000 -1.000000 -0.000000 133 71 0 255
0.110000 0.075000 -0.000000 -0.000000 -1.000000 -0.000000 133 71 0 255
-0.090000 0.075000 -0.000000 0.000000 -1.000000 -0.000000 135 75 25 255
-0.090000 0.075000 0.175000 0.000000 -1.000000 -0.000000 133 71 0 255
-0.115000 0.075000 -0.000000 0.000000 -1.000000 -0.000000 133 71 0 255
-0.115000 0.075000 0.175000 0.000000 -1.000000 -0.000000 133 71 0 255
-0.115000 0.075000 -0.000000 -1.000000 -0.000000 -0.000000 133 71 0 255
-0.115000 0.075000 0.175000 -1.000000 -0.000000 -0.000000 133 71 0 255
-0.115000 0.100000 0.000000 -1.000000 -0.000000 -0.000000 135 74 21 255
-0.115000 0.100000 0.225000 -1.000000 0.000000 -0.000000 140 85 47 255
-0.115000 -0.075000 0.175000 -1.000000 0.000000 0.000000 133 71 0 255
-0.115000 -0.100000 0.225000 -1.000000 0.000000 0.000000 133 71 0 255
-0.115000 -0.100000 -0.000000 -1.000000 0.000000 0.000000 133 71 0 255
-0.115000 -0.075000 -0.000000 -1.000000 -0.000000 0.000000 133 71 0 255
-0.115000 -0.075000 -0.000000 0.000000 0.000000 -1.000000 133 71 0 255
-0.090000 -0.075000 -0.000000 0.000000 0.000000 -1.000000 133 71 0 255
-0.115000 -0.100000 -0.000000 0.000000 0.000000 -1.000000 133 71 0 255
-0.090000 -0.100000 -0.000000 0.000000 0.000000 -1.000000 133 71 1 255
0.110000 -0.075000 -0.000000 1.000000 -0.000000 0.000000 133 71 2 255
0.110000 -0.075000 0.175000 1.000000 -0.000000 0.000000 133 71 0 255
0.110000 -0.100000 -0.000000 1.000000 -0.000000 0.000000 133 71 0 255
0.110000 -0.100000 0.225000 1.000000 0.000000 0.000000 133 71 0 255
0.110000 0.100000 0.225000 1.000000 0.000000 0.000000 133 71 0 255
0.110000 0.075000 0.175000 1.000000 0.000000 -0.000000 133 71 0 255
0.110000 0.100000 0.000000 1.000000 0.000000 -0.000000 133 71 0 255
0.110000 0.075000 -0.000000 1.000000 -0.000000 -0.000000 133 71 0 255
0.110000 0.075000 -0.000000 0.000000 0.000000 -1.000000 133 71 0 255
0.085000 0.075000 -0.000000 0.000000 0.000000 -1.000000 133 71 0 255
0.110000 0.100000 0.000000 0.000000 0.000000 -1.000000 133 71 0 255
0.085000 0.100000 0.000000 0.000000 0.000000 -1.000000 133 71 0 255
-0.090000 -0.075000 -0.000000 1.000000 -0.000000 0.000000 133 71 0 255
-0.090000 -0.075000 0.175000 1.000000 -0.000000 0.000000 133 71 0 255
-0.090000 -0.100000 -0.000000 1.000000 -0.000000 0.000000 133 71 1 255
-0.090000 -0.100000 0.175000 1.000000 -0.000000 0.000000 133 71 0 255
0.085000 0.075000 -0.000000 -1.000000 -0.000000 -0.000000 133 71 0 255
0.085000 0.075000 0.175000 -1.000000 -0.000000 -0.000000 133 71 0 255
0.085000 0.100000 0.000000 -1.000000 -0.000000 -0.000000 133 71 0 255
0.085000 0.100000 0.175000 -1.000000 -0.000000 -0.000000 133 71 0 255
-0.090000 0.100000 0.175000 0.000000 0.000000 -1.000000 133 71 0 255
0.085000 0.100000 0.175000 0.000000 0.000000 -1.000000 133 71 0 255
-0.090000 0.075000 0.175000 0.000000 0.000000 -1.000000 133 71 0 255
0.085000 0.075000 0.175000 -0.000000 0.000000 -1.000000 133 71 0 255
-0.090000 -0.075000 0.175000 0.000000 0.000000 -1.000000 133 71 0 255
0.085000 -0.075000 0.175000 0.000000 0.000000 -1.000000 133 71 0 255
-0.090000 -0.100000 0.175000 0.000000 0.000000 -1.000000 133 71 0 255
0.085000 -0.100000 0.175000 -0.000000 0.000000 -1.000000 134 72 5 255
0.110000 0.075000 0.175000 0.000000 0.000000 -1.000000 133 71 0 255
0.110000 -0.075000 0.175000 0.000000 0.000000 -1.000000 133 71 0 255
-0.115000 -0.075000 0.175000 0.000000 0.000000 -1.000000 133 71 0 255
-0.115000 0.075000 0.175000 0.000000 0.000000 -1.000000 133 71 0 255
-0.090000 0.075000 0.175000 1.000000 0.000000 0.000000 133 71 0 255
-0.090000 0.075000 -0.000000 1.000000 0.000000 0.000000 135 75 25 255
-0.090000 0.100000 0.175000 1.000000 0.000000 0.000000 133 71 0 255
-0.090000 0.100000 0.000000 1.000000 0.000000 -0.000000 133 71 1 255
-0.090000 0.075000 -0.000000 0.000000 0.000000 -1.000000 135 75 25 255
-0.115000 0.075000 -0.000000 0.000000 0.000000 -1.000000 133 71 0 255
-0.090000 0.100000 0.000000 0.000000 0.000000 -1.000000 133 71 1 255
-0.115000 0.100000 0.000000 0.000000 0.000000 -1.000000 135 74 21 255
0.020000 -0.005000 0.225000 -0.000000 0.000000 1.000000 133 71 0 255
0.110000 0.100000 0.225000 -0.000000 0.000000 1.000000 133 71 0 255
0.020000 0.005000 0.225000 -0.000000 0.000000 1.000000 133 71 0 255
-0.115000 0.100000 0.225000 -0.000000 0.000000 1.000000 140 85 47 255
-0.025000 0.005000 0.225000 -0.000000 -0.000000 1.000000 133 71 0 255
-0.025000 -0.005000 0.225000 -0.000000 -0.000000 1.000000 133 71 0 255
-0.115000 -0.100000 0.225000 -0.000000 -0.000000 1.000000 133 71 0 255
0.110000 -0.100000 0.225000 0.000000 -0.000000 1.000000 133 71 0 255
0.085000 -0.075000 -0.000000 0.000000 0.000000 -1.000000 133 71 1 255
0.110000 -0.075000 -0.000000 0.000000 0.000000 -1.000000 133 71 2 255
0.085000 -0.100000 -0.000000 0.000000 0.000000 -1.000000 135 74 20 255
0.110000 -0.100000 -0.000000 0.000000 0.000000 -1.000000 133 71 0 255
0.085000 -0.075000 0.175000 -1.000000 0.000000 0.000000 133 71 0 255
0.085000 -0.075000 -0.000000 -1.000000 0.000000 0.000000 133 71 1 255
0.085000 -0.100000 0.175000 -1.000000 0.000000 0.000000 134 72 5 255
0.085000 -0.100000 -0.000000 -1.000000 0.000000 0.000000 135 74 20 255
0.085000 -0.100000 -0.000000 -0.000000 -1.000000 -0.000000 135 74 20 255
0.110000 -0.100000 -0.000000 -0.000000 -1.000000 -0.000000 133 71 0 255
0.085000 -0.100000 0.175000 -0.000000 -1.000000 -0.000000 134 72 5 255
0.110000 -0.100000 0.225000 0.000000 -1.000000 -0.000000 133 71 0 255
-0.115000 -0.100000 0.225000 0.000000 -1.000000 -0.000000 133 71 0 255
-0.090000 -0.100000 0.175000 0.000000 -1.000000 0.000000 133 71 0 255
-0.115000 -0.100000 -0.000000 -0.000000 -1.000000 -0.000000 133 71 0 255
-0.090000 -0.100000 -0.000000 -0.000000 -1.000000 -0.000000 133 71 1 255
0.085000 0.100000 0.000000 0.000000 1.000000 0.000000 133 71 0 255
0.085000 0.100000 0.175000 0.000000 1.000000 0.000000 133 71 0 255
0.110000 0.100000 0.000000 0.000000 1.000000 0.000000 133 71 0 255
0.110000 0.100000 0.225000 -0.000000 1.000000 0.000000 133 71 0 255
-0.090000 0.100000 0.175000 0.000000 1.000000 0.000000 133 71 0 255
-0.115000 0.100000 0.225000 -0.000000 1.000000 0.000000 140 85 47 255
-0.115000 0.100000 0.000000 0.000000 1.000000 0.000000 135 74 21 255
-0.090000 0.100000 0.000000 0.000000 1.000000 0.000000 133 71 1 255
3 0 1 2
3 2 1 3
3 4 5 6
3 6 5 7
3 8 9 10
3 10 9 11
3 12 13 14
3 14 13 15
3 16 17 18
3 18 17 19
3 18 19 20
3 20 19 21
3 20 21 22
3 22 21 23
3 24 25 26
3 26 25 27
3 26 27 28
3 28 27 29
3 28 29 30
3 30 29 31
3 32 33 34
3 34 33 35
3 36 37 38
3 38 37 39
3 38 39 40
3 40 39 41
3 42 43 44
3 44 43 45
3 46 47 48
3 48 47 49
3 50 51 52
3 52 51 53
3 54 55 56
3 56 55 57
3 58 59 60
3 60 59 61
3 62 63 64
3 64 63 65
3 65 63 66
3 65 66 67
3 68 69 70
3 70 69 71
3 72 73 74
3 74 73 75
3 76 77 78
3 78 77 79
3 80 81 82
3 82 81 83
3 84 85 86
3 86 85 87
3 88 89 90
3 90 89 91
3 91 89 92
3 91 92 93
3 93 92 94
3 94 92 95
3 96 97 98
3 98 97 99
3 100 101 102
3 102 101 103
3 103 101 104
3 104 101 105
3 104 105 106
3 106 105 107
3 108 109 110
3 110 109 111
3 112 113 114
3 114 113 115
3 116 117 118
3 118 117 119
3 120 121 122
3 122 121 123
3 122 123 124
3 124 123 125
3 124 125 126
3 126 125 127
3 123 128 125
3 125 128 129
3 124 130 122
3 122 130 131
3 132 133 134
3 134 133 135
3 136 137 138
3 138 137 139
3 140 141 142
3 142 141 143
3 142 143 144
3 144 143 145
3 145 143 146
3 145 146 147
3 141 140 147
3 147 140 145
3 148 149 150
3 150 149 151
3 152 153 154
3 154 153 155
3 156 157 158
3 158 157 159
3 158 159 160
3 158 160 161
3 161 160 162
3 161 162 163
3 164 165 166
3 166 165 167
3 167 165 168
3 167 168 169
3 169 168 170
3 170 168 171
