ply
format ascii 1.0
comment Created by Blender 2.82 (sub 7) - www.blender.org, source file: 'CollisionObject.blend'
element vertex 174
property float x
property float y
property float z
property float nx
property float ny
property float nz
property uchar red
property uchar green
property uchar blue
property uchar alpha
element face 108
property list uchar uint vertex_indices
end_header
0.005000 0.020000 0.275000 0.000000 0.000000 -1.000000 255 5 17 255
0.020000 0.020000 0.275000 0.000000 0.000000 -1.000000 255 0 16 255
0.005000 -0.025000 0.275000 0.000000 0.000000 -1.000000 255 0 16 255
0.020000 -0.025000 0.275000 -0.000000 0.000000 -1.000000 255 0 16 255
0.005000 0.020000 0.225000 1.000000 -0.000000 0.000000 133 71 0 255
0.005000 0.020000 0.275000 1.000000 -0.000000 0.000000 255 5 17 255
0.005000 -0.025000 0.225000 1.000000 -0.000000 0.000000 133 71 0 255
0.005000 -0.025000 0.275000 1.000000 -0.000000 0.000000 255 0 16 255
-0.020000 0.020000 0.275000 0.000000 0.000000 -1.000000 255 6 17 255
-0.005000 0.020000 0.275000 0.000000 0.000000 -1.000000 255 2 16 255
-0.020000 -0.025000 0.275000 0.000000 0.000000 -1.000000 255 18 24 255
-0.005000 -0.025000 0.275000 -0.000000 0.000000 -1.000000 255 0 16 255
-0.005000 0.020000 0.275000 -1.000000 0.000000 0.000000 255 2 16 255
-0.005000 0.020000 0.225000 -1.000000 0.000000 0.000000 133 71 0 255
-0.005000 -0.025000 0.275000 -1.000000 0.000000 0.000000 255 0 16 255
-0.005000 -0.025000 0.225000 -1.000000 0.000000 0.000000 133 71 0 255
0.020000 -0.025000 0.275000 1.000000 0.000000 0.000000 255 0 16 255
0.020000 0.020000 0.275000 1.000000 0.000000 0.000000 255 0 16 255
0.020000 -0.056820 0.306820 1.000000 0.000000 0.000000 255 0 16 255
0.020000 0.051820 0.306820 1.000000 0.000000 0.000000 255 0 16 255
0.020000 -0.056820 0.351820 1.000000 0.000000 -0.000000 255 28 33 255
0.020000 0.051820 0.351820 1.000000 0.000000 0.000000 255 8 18 255
0.020000 -0.025000 0.383640 1.000000 0.000000 -0.000000 255 7 18 255
0.020000 0.020000 0.383640 1.000000 0.000000 0.000000 255 40 43 255
-0.020000 0.020000 0.275000 -1.000000 0.000000 -0.000000 255 6 17 255
-0.020000 -0.025000 0.275000 -1.000000 0.000000 -0.000000 255 18 24 255
-0.020000 0.051820 0.306820 -1.000000 0.000000 -0.000000 255 0 16 255
-0.020000 -0.056820 0.306820 -1.000000 0.000000 0.000000 255 4 16 255
-0.020000 0.051820 0.351820 -1.000000 0.000000 -0.000000 255 2 16 255
-0.020000 -0.056820 0.351820 -1.000000 -0.000000 0.000000 255 0 16 255
-0.020000 0.020000 0.383640 -1.000000 -0.000000 -0.000000 255 0 16 255
-0.020000 -0.025000 0.383640 -1.000000 -0.000000 0.000000 255 2 16 255
0.005000 -0.025000 0.275000 0.000000 -1.000000 0.000000 255 0 16 255
-0.005000 -0.025000 0.275000 0.000000 -1.000000 0.000000 255 0 16 255
0.005000 -0.025000 0.225000 0.000000 -1.000000 0.000000 133 71 0 255
-0.005000 -0.025000 0.225000 0.000000 -1.000000 0.000000 133 71 0 255
-0.020000 -0.025000 0.275000 0.000000 -0.707107 -0.707107 255 18 24 255
-0.005000 -0.025000 0.275000 0.000000 -0.707107 -0.707107 255 0 16 255
-0.020000 -0.056820 0.306820 0.000000 -0.707107 -0.707107 255 4 16 255
0.005000 -0.025000 0.275000 -0.000000 -0.707107 -0.707107 255 0 16 255
0.020000 -0.056820 0.306820 0.000000 -0.707107 -0.707107 255 0 16 255
0.020000 -0.025000 0.275000 -0.000000 -0.707107 -0.707107 255 0 16 255
-0.020000 -0.056820 0.351820 -0.000000 -1.000000 0.000000 255 0 16 255
-0.020000 -0.056820 0.306820 -0.000000 -1.000000 0.000000 255 4 16 255
0.020000 -0.056820 0.351820 -0.000000 -1.000000 0.000000 255 28 33 255
0.020000 -0.056820 0.306820 0.000000 -1.000000 0.000000 255 0 16 255
-0.020000 -0.025000 0.383640 0.000000 -0.707107 0.707107 255 2 16 255
-0.020000 -0.056820 0.351820 0.000000 -0.707107 0.707107 255 0 16 255
0.020000 -0.025000 0.383640 0.000000 -0.707107 0.707107 255 7 18 255
0.020000 -0.056820 0.351820 0.000000 -0.707107 0.707107 255 28 33 255
-0.020000 0.020000 0.383640 0.000000 0.000000 1.000000 255 0 16 255
-0.020000 -0.025000 0.383640 0.000000 0.000000 1.000000 255 2 16 255
0.020000 0.020000 0.383640 0.000000 0.000000 1.000000 255 40 43 255
0.020000 -0.025000 0.383640 0.000000 -0.000000 1.000000 255 7 18 255
-0.020000 0.051820 0.351820 0.000000 0.707107 0.707107 255 2 16 255
-0.020000 0.020000 0.383640 0.000000 0.707107 0.707107 255 0 16 255
0.020000 0.051820 0.351820 0.000000 0.707107 0.707107 255 8 18 255
0.020000 0.020000 0.383640 0.000000 0.707107 0.707107 255 40 43 255
-0.020000 0.051820 0.306820 0.000000 1.000000 0.000000 255 0 16 255
-0.020000 0.051820 0.351820 0.000000 1.000000 0.000000 255 2 16 255
0.020000 0.051820 0.306820 0.000000 1.000000 0.000000 255 0 16 255
0.020000 0.051820 0.351820 0.000000 1.000000 0.000000 255 8 18 255
-0.020000 0.020000 0.275000 0.000000 0.707107 -0.707107 255 6 17 255
-0.020000 0.051820 0.306820 0.000000 0.707107 -0.707107 255 0 16 255
-0.005000 0.020000 0.275000 0.000000 0.707107 -0.707107 255 2 16 255
0.005000 0.020000 0.275000 0.000000 0.707107 -0.707107 255 5 17 255
0.020000 0.051820 0.306820 0.000000 0.707107 -0.707107 255 0 16 255
0.020000 0.020000 0.275000 0.000000 0.707107 -0.707107 255 0 16 255
0.005000 0.020000 0.225000 -0.000000 1.000000 0.000000 133 71 0 255
-0.005000 0.020000 0.225000 -0.000000 1.000000 0.000000 133 71 0 255
0.005000 0.020000 0.275000 -0.000000 1.000000 0.000000 255 5 17 255
-0.005000 0.020000 0.275000 -0.000000 1.000000 0.000000 255 2 16 255
0.075000 0.085000 -0.000000 -1.000000 0.000000 0.000000 133 71 1 255
0.075000 0.085000 0.175000 -1.000000 0.000000 0.000000 133 71 0 255
0.075000 0.110000 -0.000000 -1.000000 0.000000 0.000000 133 71 2 255
0.075000 0.110000 0.175000 -1.000000 0.000000 0.000000 133 71 0 255
0.075000 -0.090000 0.175000 -1.000000 -0.000001 0.000000 133 71 0 255
0.075000 -0.090000 -0.000000 -1.000000 -0.000001 0.000000 133 71 0 255
0.075000 -0.115000 0.175000 -1.000000 -0.000001 0.000000 133 71 0 255
0.075000 -0.115000 0.175000 -1.000000 0.000000 0.000000 133 71 0 255
0.075000 -0.090000 -0.000000 -1.000000 0.000000 0.000000 133 71 0 255
0.075000 -0.115000 -0.000000 -1.000000 0.000000 0.000000 133 71 0 255
-0.075000 0.085000 0.175000 1.000000 0.000000 -0.000000 133 71 0 255
-0.075000 0.085000 -0.000000 1.000000 0.000000 -0.000000 133 71 0 255
-0.075000 0.110000 0.175000 1.000000 0.000000 -0.000000 133 71 0 255
-0.075000 0.110000 -0.000000 1.000000 0.000000 -0.000000 133 71 0 255
-0.075000 -0.090000 -0.000000 1.000000 0.000000 -0.000000 135 75 25 255
-0.075000 -0.090000 0.175000 1.000000 0.000000 -0.000000 133 71 0 255
-0.075000 -0.115000 -0.000000 1.000000 0.000000 -0.000000 133 71 0 255
-0.075000 -0.115000 0.175000 1.000000 0.000000 -0.000000 133 71 0 255
-0.075000 -0.115000 -0.000000 0.000000 -1.000000 -0.000000 133 71 0 255
-0.075000 -0.115000 0.175000 0.000000 -1.000000 -0.000000 133 71 0 255
-0.100000 -0.115000 0.000000 0.000000 -1.000000 -0.000000 135 74 21 255
-0.100000 -0.115000 0.225000 0.000000 -1.000000 -0.000000 140 85 47 255
0.075000 -0.115000 0.175000 0.000000 -1.000000 0.000000 133 71 0 255
0.100000 -0.115000 0.225000 0.000000 -1.000000 -0.000000 133 71 0 255
0.100000 -0.115000 -0.000000 0.000000 -1.000000 0.000000 133 71 0 255
0.075000 -0.115000 -0.000000 0.000000 -1.000000 0.000000 133 71 0 255
0.075000 -0.115000 -0.000000 -0.000000 -0.000000 -1.000000 133 71 0 255
0.075000 -0.090000 -0.000000 -0.000000 -0.000000 -1.000000 133 71 0 255
0.100000 -0.115000 -0.000000 -0.000000 -0.000000 -1.000000 133 71 0 255
0.100000 -0.090000 -0.000000 -0.000000 0.000000 -1.000000 133 71 1 255
0.075000 0.110000 -0.000000 0.000000 1.000000 0.000000 133 71 2 255
0.075000 0.110000 0.175000 0.000000 1.000000 0.000000 133 71 0 255
0.100000 0.110000 -0.000000 0.000000 1.000000 0.000000 133 71 0 255
0.100000 0.110000 0.225000 0.000000 1.000000 0.000000 133 71 0 255
-0.100000 0.110000 0.225000 -0.000000 1.000000 0.000000 133 71 0 255
-0.075000 0.110000 0.175000 -0.000000 1.000000 -0.000000 133 71 0 255
-0.100000 0.110000 0.000000 0.000000 1.000000 -0.000000 133 71 0 255
-0.075000 0.110000 -0.000000 0.000000 1.000000 -0.000000 133 71 0 255
-0.075000 0.110000 -0.000000 -0.000000 0.000000 -1.000000 133 71 0 255
-0.075000 0.085000 -0.000000 -0.000000 0.000000 -1.000000 133 71 0 255
-0.100000 0.110000 0.000000 -0.000000 0.000000 -1.000000 133 71 0 255
-0.100000 0.085000 0.000000 -0.000000 0.000000 -1.000000 133 71 0 255
0.075000 -0.090000 -0.000000 -0.000000 1.000000 0.000000 133 71 0 255
0.075000 -0.090000 0.175000 -0.000000 1.000000 0.000000 133 71 0 255
0.100000 -0.090000 -0.000000 -0.000000 1.000000 0.000000 133 71 1 255
0.100000 -0.090000 0.175000 -0.000000 1.000000 0.000000 133 71 0 255
-0.075000 0.085000 -0.000000 0.000000 -1.000000 -0.000000 133 71 0 255
-0.075000 0.085000 0.175000 0.000000 -1.000000 -0.000000 133 71 0 255
-0.100000 0.085000 0.000000 0.000000 -1.000000 -0.000000 133 71 0 255
-0.100000 0.085000 0.175000 0.000000 -1.000000 -0.000000 133 71 0 255
-0.100000 -0.090000 0.175000 -0.000000 -0.000000 -1.000000 133 71 0 255
-0.100000 0.085000 0.175000 -0.000000 -0.000000 -1.000000 133 71 0 255
-0.075000 -0.090000 0.175000 -0.000000 -0.000000 -1.000000 133 71 0 255
-0.075000 0.085000 0.175000 -0.000000 -0.000000 -1.000000 133 71 0 255
0.075000 -0.090000 0.175000 -0.000000 -0.000000 -1.000000 133 71 0 255
0.075000 0.085000 0.175000 -0.000000 0.000000 -1.000000 133 71 0 255
0.100000 -0.090000 0.175000 -0.000000 -0.000000 -1.000000 133 71 0 255
0.100000 0.085000 0.175000 -0.000000 -0.000000 -1.000000 134 72 5 255
-0.075000 0.110000 0.175000 -0.000000 -0.000000 -1.000000 133 71 0 255
0.075000 0.110000 0.175000 -0.000000 0.000000 -1.000000 133 71 0 255
0.075000 -0.115000 0.175000 -0.000000 -0.000000 -1.000000 133 71 0 255
-0.075000 -0.115000 0.175000 -0.000000 0.000000 -1.000000 133 71 0 255
-0.075000 -0.090000 0.175000 -0.000000 1.000000 0.000000 133 71 0 255
-0.075000 -0.090000 -0.000000 -0.000000 1.000000 0.000000 135 75 25 255
-0.100000 -0.090000 0.175000 -0.000000 1.000000 0.000000 133 71 0 255
-0.100000 -0.090000 0.000000 -0.000000 1.000000 -0.000000 133 71 1 255
-0.075000 -0.090000 -0.000000 -0.000000 0.000000 -1.000000 135 75 25 255
-0.075000 -0.115000 -0.000000 -0.000000 0.000000 -1.000000 133 71 0 255
-0.100000 -0.090000 0.000000 -0.000000 0.000000 -1.000000 133 71 1 255
-0.100000 -0.115000 0.000000 -0.000000 0.000000 -1.000000 135 74 21 255
0.005000 0.020000 0.225000 -0.000000 -0.000000 1.000000 133 71 0 255
-0.100000 0.110000 0.225000 -0.000000 -0.000000 1.000000 133 71 0 255
-0.005000 0.020000 0.225000 -0.000000 -0.000000 1.000000 133 71 0 255
-0.100000 -0.115000 0.225000 -0.000000 -0.000000 1.000000 140 85 47 255
-0.005000 -0.025000 0.225000 0.000000 -0.000000 1.000000 133 71 0 255
0.005000 -0.025000 0.225000 0.000000 -0.000000 1.000000 133 71 0 255
0.100000 -0.115000 0.225000 0.000000 -0.000000 1.000000 133 71 0 255
0.100000 0.110000 0.225000 0.000000 0.000000 1.000000 133 71 0 255
0.075000 0.085000 -0.000000 -0.000000 -0.000000 -1.000000 133 71 1 255
0.075000 0.110000 -0.000000 -0.000000 -0.000000 -1.000000 133 71 2 255
0.100000 0.085000 -0.000000 -0.000000 -0.000000 -1.000000 135 74 20 255
0.100000 0.110000 -0.000000 -0.000000 0.000000 -1.000000 133 71 0 255
0.075000 0.085000 0.175000 -0.000000 -1.000000 0.000000 133 71 0 255
0.075000 0.085000 -0.000000 -0.000000 -1.000000 0.000000 133 71 1 255
0.100000 0.085000 0.175000 -0.000000 -1.000000 0.000000 134 72 5 255
0.100000 0.085000 -0.000000 0.000000 -1.000000 0.000000 135 74 20 255
0.100000 0.085000 -0.000000 1.000000 0.000000 -0.000000 135 74 20 255
0.100000 0.110000 -0.000000 1.000000 0.000000 -0.000000 133 71 0 255
0.100000 0.085000 0.175000 1.000000 0.000000 -0.000000 134 72 5 255
0.100000 0.110000 0.225000 1.000000 0.000000 -0.000000 133 71 0 255
0.100000 -0.115000 0.225000 1.000000 0.000000 -0.000000 133 71 0 255
0.100000 -0.090000 0.175000 1.000000 0.000000 -0.000000 133 71 0 255
0.100000 -0.115000 -0.000000 1.000000 0.000000 -0.000000 133 71 0 255
0.100000 -0.090000 -0.000000 1.000000 0.000000 -0.000000 133 71 1 255
-0.100000 0.085000 0.000000 -1.000000 0.000000 0.000000 133 71 0 255
-0.100000 0.085000 0.175000 -1.000000 0.000000 0.000000 133 71 0 255
-0.100000 0.110000 0.000000 -1.000000 0.000000 0.000000 133 71 0 255
-0.100000 0.110000 0.225000 -1.000000 -0.000000 0.000000 133 71 0 255
-0.100000 -0.090000 0.175000 -1.000000 -0.000000 0.000000 133 71 0 255
-0.100000 -0.115000 0.225000 -1.000000 -0.000000 -0.000000 140 85 47 255
-0.100000 -0.115000 0.000000 -1.000000 0.000000 0.000000 135 74 21 255
-0.100000 -0.090000 0.000000 -1.000000 0.000000 0.000000 133 71 1 255
3 0 1 2
3 2 1 3
3 4 5 6
3 6 5 7
3 8 9 10
3 10 9 11
3 12 13 14
3 14 13 15
3 16 17 18
3 18 17 19
3 18 19 20
3 20 19 21
3 20 21 22
3 22 21 23
3 24 25 26
3 26 25 27
3 26 27 28
3 28 27 29
3 28 29 30
3 30 29 31
3 32 33 34
3 34 33 35
3 36 37 38
3 38 37 39
3 38 39 40
3 40 39 41
3 42 43 44
3 44 43 45
3 46 47 48
3 48 47 49
3 50 51 52
3 52 51 53
3 54 55 56
3 56 55 57
3 58 59 60
3 60 59 61
3 62 63 64
3 64 63 65
3 65 63 66
3 65 66 67
3 68 69 70
3 70 69 71
3 72 73 74
3 74 73 75
3 76 77 78
3 79 80 81
3 82 83 84
3 84 83 85
3 86 87 88
3 88 87 89
3 90 91 92
3 92 91 93
3 93 91 94
3 93 94 95
3 95 94 96
3 96 94 97
3 98 99 100
3 100 99 101
3 102 103 104
3 104 103 105
3 105 103 106
3 106 103 107
3 106 107 108
3 108 107 109
3 110 111 112
3 112 111 113
3 114 115 116
3 116 115 117
3 118 119 120
3 120 119 121
3 122 123 124
3 124 123 125
3 124 125 126
3 126 125 127
3 126 127 128
3 128 127 129
3 125 130 127
3 127 130 131
3 126 132 124
3 124 132 133
3 134 135 136
3 136 135 137
3 138 139 140
3 140 139 141
3 142 143 144
3 144 143 145
3 144 145 146
3 146 145 147
3 147 145 148
3 147 148 149
3 143 142 149
3 149 142 147
3 150 151 152
3 152 151 153
3 154 155 156
3 156 155 157
3 158 159 160
3 160 159 161
3 160 161 162
3 160 162 163
3 163 162 164
3 163 164 165
3 166 167 168
3 168 167 169
3 169 167 170
3 169 170 171
3 171 170 172
3 172 170 173
