ply
format ascii 1.0
comment Created by Blender 2.82 (sub 7) - www.blender.org, source file: 'GlassBlock.blend'
element vertex 72
property float x
property float y
property float z
property float nx
property float ny
property float nz
element face 44
property list uchar uint vertex_indices
end_header
-0.055000 0.040000 0.045000 -1.000000 0.000000 -0.000000
-0.055000 -0.040000 0.045000 -1.000000 0.000000 -0.000000
-0.055000 0.040000 0.145000 -1.000000 0.000000 -0.000000
-0.055000 -0.040000 0.145000 -1.000000 0.000000 0.000000
0.045000 0.040000 0.045000 -0.000000 1.000000 0.000000
-0.055000 0.040000 0.045000 -0.000000 1.000000 0.000000
0.045000 0.040000 0.145000 -0.000000 1.000000 0.000000
-0.055000 0.040000 0.145000 -0.000000 1.000000 0.000000
0.045000 -0.040000 0.045000 1.000000 0.000000 0.000000
0.045000 0.040000 0.045000 1.000000 0.000000 0.000000
0.045000 -0.040000 0.145000 1.000000 0.000000 0.000000
0.045000 0.040000 0.145000 1.000000 0.000000 0.000000
-0.055000 -0.040000 0.045000 -0.000000 -1.000000 -0.000000
0.045000 -0.040000 0.045000 -0.000000 -1.000000 -0.000000
-0.055000 -0.040000 0.145000 -0.000000 -1.000000 -0.000000
0.045000 -0.040000 0.145000 -0.000000 -1.000000 -0.000000
-0.055000 -0.040000 0.145000 0.000000 0.000000 1.000000
0.045000 -0.040000 0.145000 0.000000 0.000000 1.000000
-0.055000 0.040000 0.145000 0.000000 0.000000 1.000000
0.045000 0.040000 0.145000 0.000000 0.000000 1.000000
0.050000 -0.050000 0.035000 0.000000 -0.000000 -1.000000
-0.055000 -0.050000 0.035000 0.000000 -0.000000 -1.000000
0.050000 0.050000 0.035000 0.000000 -0.000000 -1.000000
-0.055000 0.050000 0.035000 0.000000 0.000000 -1.000000
0.050000 -0.050000 -0.110000 -1.000000 -0.000000 -0.000000
0.050000 -0.050000 0.035000 -1.000000 -0.000000 -0.000000
0.050000 0.050000 -0.110000 -1.000000 -0.000000 -0.000000
0.050000 0.050000 0.035000 -1.000000 -0.000000 -0.000000
0.060000 -0.050000 -0.110000 0.000000 -0.000000 -1.000000
0.050000 -0.050000 -0.110000 0.000000 -0.000000 -1.000000
0.060000 0.050000 -0.110000 0.000000 -0.000000 -1.000000
0.050000 0.050000 -0.110000 0.000000 0.000000 -1.000000
0.060000 -0.050000 0.045000 1.000000 0.000000 -0.000000
0.060000 -0.050000 -0.110000 1.000000 0.000000 -0.000000
0.060000 0.050000 0.045000 1.000000 0.000000 -0.000000
0.060000 0.050000 -0.110000 1.000000 0.000000 -0.000000
0.045000 -0.040000 0.045000 0.000000 0.000000 1.000000
-0.055000 -0.040000 0.045000 0.000000 0.000000 1.000000
-0.065000 -0.050000 0.045000 0.000000 0.000000 1.000000
-0.055000 0.040000 0.045000 0.000000 0.000000 1.000000
-0.065000 0.050000 0.045000 0.000000 0.000000 1.000000
0.045000 0.040000 0.045000 0.000000 0.000000 1.000000
0.060000 0.050000 0.045000 0.000000 0.000000 1.000000
0.060000 -0.050000 0.045000 0.000000 -0.000000 1.000000
-0.065000 -0.050000 -0.110000 -1.000000 -0.000000 -0.000000
-0.065000 -0.050000 0.045000 -1.000000 -0.000000 -0.000000
-0.065000 0.050000 -0.110000 -1.000000 -0.000000 -0.000000
-0.065000 0.050000 0.045000 -1.000000 -0.000000 -0.000000
-0.055000 -0.050000 -0.110000 0.000000 -0.000000 -1.000000
-0.065000 -0.050000 -0.110000 0.000000 -0.000000 -1.000000
-0.055000 0.050000 -0.110000 0.000000 -0.000000 -1.000000
-0.065000 0.050000 -0.110000 0.000000 0.000000 -1.000000
-0.055000 -0.050000 0.035000 1.000000 0.000000 -0.000000
-0.055000 -0.050000 -0.110000 1.000000 0.000000 -0.000000
-0.055000 0.050000 0.035000 1.000000 0.000000 -0.000000
-0.055000 0.050000 -0.110000 1.000000 0.000000 -0.000000
-0.055000 0.050000 -0.110000 -0.000000 1.000000 0.000000
-0.065000 0.050000 -0.110000 -0.000000 1.000000 0.000000
-0.055000 0.050000 0.035000 -0.000000 1.000000 0.000000
-0.065000 0.050000 0.045000 -0.000000 1.000000 0.000000
0.050000 0.050000 0.035000 0.000000 1.000000 0.000000
0.060000 0.050000 0.045000 0.000000 1.000000 0.000000
0.060000 0.050000 -0.110000 0.000000 1.000000 -0.000000
0.050000 0.050000 -0.110000 -0.000000 1.000000 0.000000
-0.055000 -0.050000 -0.110000 0.000000 -1.000000 0.000000
-0.055000 -0.050000 0.035000 0.000000 -1.000000 0.000000
-0.065000 -0.050000 -0.110000 0.000000 -1.000000 0.000000
-0.065000 -0.050000 0.045000 0.000000 -1.000000 -0.000000
0.050000 -0.050000 0.035000 0.000000 -1.000000 0.000000
0.060000 -0.050000 0.045000 -0.000000 -1.000000 0.000000
0.060000 -0.050000 -0.110000 0.000000 -1.000000 0.000000
0.050000 -0.050000 -0.110000 0.000000 -1.000000 0.000000
3 0 1 2
3 2 1 3
3 4 5 6
3 6 5 7
3 8 9 10
3 10 9 11
3 12 13 14
3 14 13 15
3 16 17 18
3 18 17 19
3 20 21 22
3 22 21 23
3 24 25 26
3 26 25 27
3 28 29 30
3 30 29 31
3 32 33 34
3 34 33 35
3 36 37 38
3 38 37 39
3 38 39 40
3 40 39 41
3 40 41 42
3 42 41 43
3 43 41 36
3 43 36 38
3 44 45 46
3 46 45 47
3 48 49 50
3 50 49 51
3 52 53 54
3 54 53 55
3 56 57 58
3 58 57 59
3 58 59 60
3 60 59 61
3 60 61 62
3 62 63 60
3 64 65 66
3 66 65 67
3 67 65 68
3 67 68 69
3 69 68 70
3 70 68 71
