ply
format ascii 1.0
comment Created by Blender 2.82 (sub 7) - www.blender.org, source file: 'Square.blend'
element vertex 24
property float x
property float y
property float z
property float nx
property float ny
property float nz
property float s
property float t
property uchar red
property uchar green
property uchar blue
property uchar alpha
element face 6
property list uchar uint vertex_indices
end_header
0.300000 0.300000 0.300000 0.000000 -0.000000 1.000000 0.625000 0.500000 174 1 189 255
-0.300000 0.300000 0.300000 0.000000 -0.000000 1.000000 0.875000 0.500000 255 200 13 255
-0.300000 -0.300000 0.300000 0.000000 -0.000000 1.000000 0.875000 0.750000 254 0 42 255
0.300000 -0.300000 0.300000 0.000000 -0.000000 1.000000 0.625000 0.750000 19 0 255 255
0.300000 -0.300000 -0.300000 0.000000 -1.000000 0.000000 0.375000 0.750000 55 247 40 255
0.300000 -0.300000 0.300000 0.000000 -1.000000 0.000000 0.625000 0.750000 19 0 255 255
-0.300000 -0.300000 0.300000 0.000000 -1.000000 0.000000 0.625000 1.000000 254 0 42 255
-0.300000 -0.300000 -0.300000 0.000000 -1.000000 0.000000 0.375000 1.000000 255 0 36 255
-0.300000 -0.300000 -0.300000 -1.000000 -0.000000 0.000000 0.375000 0.000000 255 0 36 255
-0.300000 -0.300000 0.300000 -1.000000 -0.000000 0.000000 0.625000 0.000000 254 0 42 255
-0.300000 0.300000 0.300000 -1.000000 -0.000000 0.000000 0.625000 0.250000 255 200 13 255
-0.300000 0.300000 -0.300000 -1.000000 -0.000000 0.000000 0.375000 0.250000 255 215 2 255
-0.300000 0.300000 -0.300000 0.000000 0.000000 -1.000000 0.125000 0.500000 255 215 2 255
0.300000 0.300000 -0.300000 0.000000 0.000000 -1.000000 0.375000 0.500000 171 191 24 255
0.300000 -0.300000 -0.300000 0.000000 0.000000 -1.000000 0.375000 0.750000 55 247 40 255
-0.300000 -0.300000 -0.300000 0.000000 0.000000 -1.000000 0.125000 0.750000 255 0 36 255
0.300000 0.300000 -0.300000 1.000000 -0.000000 0.000000 0.375000 0.500000 171 191 24 255
0.300000 0.300000 0.300000 1.000000 -0.000000 0.000000 0.625000 0.500000 174 1 189 255
0.300000 -0.300000 0.300000 1.000000 -0.000000 0.000000 0.625000 0.750000 19 0 255 255
0.300000 -0.300000 -0.300000 1.000000 -0.000000 0.000000 0.375000 0.750000 55 247 40 255
-0.300000 0.300000 -0.300000 0.000000 1.000000 0.000000 0.375000 0.250000 255 215 2 255
-0.300000 0.300000 0.300000 0.000000 1.000000 0.000000 0.625000 0.250000 255 200 13 255
0.300000 0.300000 0.300000 0.000000 1.000000 0.000000 0.625000 0.500000 174 1 189 255
0.300000 0.300000 -0.300000 0.000000 1.000000 0.000000 0.375000 0.500000 171 191 24 255
4 0 1 2 3
4 4 5 6 7
4 8 9 10 11
4 12 13 14 15
4 16 17 18 19
4 20 21 22 23
